<svg width="202" height="22" viewBox="0 0 202 22" fill="none" xmlns="http://www.w3.org/2000/svg">
<path d="M2.65039 1.09375H6.12305L11.2363 15.709L16.3496 1.09375H19.8223L12.6309 21H9.8418L2.65039 1.09375ZM0.777344 1.09375H4.23633L4.86523 15.3398V21H0.777344V1.09375ZM18.2363 1.09375H21.709V21H17.6074V15.3398L18.2363 1.09375ZM41.6562 10.582V11.5254C41.6562 13.0384 41.4512 14.3965 41.041 15.5996C40.6309 16.8027 40.0521 17.8281 39.3047 18.6758C38.5573 19.5143 37.6641 20.1569 36.625 20.6035C35.5951 21.0501 34.4512 21.2734 33.1934 21.2734C31.9447 21.2734 30.8008 21.0501 29.7617 20.6035C28.7318 20.1569 27.8385 19.5143 27.082 18.6758C26.3255 17.8281 25.7376 16.8027 25.3184 15.5996C24.9082 14.3965 24.7031 13.0384 24.7031 11.5254V10.582C24.7031 9.0599 24.9082 7.70182 25.3184 6.50781C25.7285 5.30469 26.3073 4.2793 27.0547 3.43164C27.8112 2.58398 28.7044 1.93685 29.7344 1.49023C30.7734 1.04362 31.9173 0.820312 33.166 0.820312C34.4238 0.820312 35.5677 1.04362 36.5977 1.49023C37.6367 1.93685 38.5299 2.58398 39.2773 3.43164C40.0339 4.2793 40.6172 5.30469 41.0273 6.50781C41.4466 7.70182 41.6562 9.0599 41.6562 10.582ZM37.5137 11.5254V10.5547C37.5137 9.4974 37.418 8.56771 37.2266 7.76562C37.0352 6.96354 36.7526 6.28906 36.3789 5.74219C36.0052 5.19531 35.5495 4.78516 35.0117 4.51172C34.474 4.22917 33.8587 4.08789 33.166 4.08789C32.4733 4.08789 31.8581 4.22917 31.3203 4.51172C30.7917 4.78516 30.3405 5.19531 29.9668 5.74219C29.6022 6.28906 29.3242 6.96354 29.1328 7.76562C28.9414 8.56771 28.8457 9.4974 28.8457 10.5547V11.5254C28.8457 12.5736 28.9414 13.5033 29.1328 14.3145C29.3242 15.1165 29.6068 15.7956 29.9805 16.3516C30.3542 16.8984 30.8099 17.3132 31.3477 17.5957C31.8854 17.8783 32.5007 18.0195 33.1934 18.0195C33.8861 18.0195 34.5013 17.8783 35.0391 17.5957C35.5768 17.3132 36.028 16.8984 36.3926 16.3516C36.7572 15.7956 37.0352 15.1165 37.2266 14.3145C37.418 13.5033 37.5137 12.5736 37.5137 11.5254ZM60.9609 10.582V11.5254C60.9609 13.0384 60.7559 14.3965 60.3457 15.5996C59.9355 16.8027 59.3568 17.8281 58.6094 18.6758C57.862 19.5143 56.9688 20.1569 55.9297 20.6035C54.8997 21.0501 53.7559 21.2734 52.498 21.2734C51.2493 21.2734 50.1055 21.0501 49.0664 20.6035C48.0365 20.1569 47.1432 19.5143 46.3867 18.6758C45.6302 17.8281 45.0423 16.8027 44.623 15.5996C44.2129 14.3965 44.0078 13.0384 44.0078 11.5254V10.582C44.0078 9.0599 44.2129 7.70182 44.623 6.50781C45.0332 5.30469 45.612 4.2793 46.3594 3.43164C47.1159 2.58398 48.0091 1.93685 49.0391 1.49023C50.0781 1.04362 51.222 0.820312 52.4707 0.820312C53.7285 0.820312 54.8724 1.04362 55.9023 1.49023C56.9414 1.93685 57.8346 2.58398 58.582 3.43164C59.3385 4.2793 59.9219 5.30469 60.332 6.50781C60.7513 7.70182 60.9609 9.0599 60.9609 10.582ZM56.8184 11.5254V10.5547C56.8184 9.4974 56.7227 8.56771 56.5312 7.76562C56.3398 6.96354 56.0573 6.28906 55.6836 5.74219C55.3099 5.19531 54.8542 4.78516 54.3164 4.51172C53.7786 4.22917 53.1634 4.08789 52.4707 4.08789C51.778 4.08789 51.1628 4.22917 50.625 4.51172C50.0964 4.78516 49.6452 5.19531 49.2715 5.74219C48.9069 6.28906 48.6289 6.96354 48.4375 7.76562C48.2461 8.56771 48.1504 9.4974 48.1504 10.5547V11.5254C48.1504 12.5736 48.2461 13.5033 48.4375 14.3145C48.6289 15.1165 48.9115 15.7956 49.2852 16.3516C49.6589 16.8984 50.1146 17.3132 50.6523 17.5957C51.1901 17.8783 51.8053 18.0195 52.498 18.0195C53.1908 18.0195 53.806 17.8783 54.3438 17.5957C54.8815 17.3132 55.3327 16.8984 55.6973 16.3516C56.0618 15.7956 56.3398 15.1165 56.5312 14.3145C56.7227 13.5033 56.8184 12.5736 56.8184 11.5254ZM70.0254 21H65.6914L65.7188 17.8008H70.0254C71.1009 17.8008 72.0078 17.5592 72.7461 17.0762C73.4844 16.584 74.0404 15.8685 74.4141 14.9297C74.7969 13.9909 74.9883 12.8561 74.9883 11.5254V10.5547C74.9883 9.53385 74.8789 8.63607 74.6602 7.86133C74.4505 7.08659 74.1361 6.4349 73.7168 5.90625C73.2975 5.3776 72.7826 4.98112 72.1719 4.7168C71.5612 4.44336 70.8594 4.30664 70.0664 4.30664H65.6094V1.09375H70.0664C71.3971 1.09375 72.6139 1.32161 73.7168 1.77734C74.8288 2.22396 75.7904 2.86654 76.6016 3.70508C77.4128 4.54362 78.0371 5.54622 78.4746 6.71289C78.9212 7.87044 79.1445 9.16016 79.1445 10.582V11.5254C79.1445 12.9382 78.9212 14.2279 78.4746 15.3945C78.0371 16.5612 77.4128 17.5638 76.6016 18.4023C75.7995 19.2318 74.8379 19.8743 73.7168 20.3301C72.6048 20.7767 71.3743 21 70.0254 21ZM68.0156 1.09375V21H63.9141V1.09375H68.0156ZM84.2578 1.09375L88.4141 10.1719L92.5703 1.09375H97.041L90.4922 13.7539V21H86.3359V13.7539L79.7734 1.09375H84.2578ZM116.195 15.791C116.195 15.4355 116.141 15.1165 116.031 14.834C115.931 14.5423 115.74 14.278 115.457 14.041C115.174 13.7949 114.778 13.5534 114.268 13.3164C113.757 13.0794 113.096 12.8333 112.285 12.5781C111.383 12.2865 110.526 11.9583 109.715 11.5938C108.913 11.2292 108.202 10.8053 107.582 10.3223C106.971 9.83008 106.488 9.26042 106.133 8.61328C105.786 7.96615 105.613 7.21419 105.613 6.35742C105.613 5.52799 105.796 4.77604 106.16 4.10156C106.525 3.41797 107.035 2.83464 107.691 2.35156C108.348 1.85938 109.122 1.48112 110.016 1.2168C110.918 0.952474 111.907 0.820312 112.982 0.820312C114.45 0.820312 115.73 1.08464 116.824 1.61328C117.918 2.14193 118.766 2.86654 119.367 3.78711C119.978 4.70768 120.283 5.76042 120.283 6.94531H116.209C116.209 6.36198 116.086 5.85156 115.84 5.41406C115.603 4.96745 115.238 4.61654 114.746 4.36133C114.263 4.10612 113.652 3.97852 112.914 3.97852C112.203 3.97852 111.611 4.08789 111.137 4.30664C110.663 4.51628 110.307 4.80339 110.07 5.16797C109.833 5.52344 109.715 5.92448 109.715 6.37109C109.715 6.70833 109.797 7.01367 109.961 7.28711C110.134 7.56055 110.389 7.81576 110.727 8.05273C111.064 8.28971 111.479 8.51302 111.971 8.72266C112.463 8.93229 113.033 9.13737 113.68 9.33789C114.764 9.66602 115.717 10.0352 116.537 10.4453C117.367 10.8555 118.059 11.3158 118.615 11.8262C119.171 12.3366 119.59 12.9154 119.873 13.5625C120.156 14.2096 120.297 14.9434 120.297 15.7637C120.297 16.6296 120.128 17.4043 119.791 18.0879C119.454 18.7715 118.966 19.3503 118.328 19.8242C117.69 20.2982 116.929 20.6582 116.045 20.9043C115.161 21.1504 114.172 21.2734 113.078 21.2734C112.094 21.2734 111.123 21.1458 110.166 20.8906C109.209 20.6263 108.339 20.2298 107.555 19.7012C106.78 19.1725 106.16 18.498 105.695 17.6777C105.23 16.8574 104.998 15.8867 104.998 14.7656H109.113C109.113 15.3854 109.209 15.9095 109.4 16.3379C109.592 16.7663 109.861 17.1126 110.207 17.377C110.562 17.6413 110.982 17.8327 111.465 17.9512C111.957 18.0697 112.495 18.1289 113.078 18.1289C113.789 18.1289 114.372 18.0286 114.828 17.8281C115.293 17.6276 115.635 17.3496 115.854 16.9941C116.081 16.6387 116.195 16.2376 116.195 15.791ZM131.986 1.09375V21H127.898V1.09375H131.986ZM138.111 1.09375V4.30664H121.869V1.09375H138.111ZM151.441 1.09375H155.529V14.2461C155.529 15.7773 155.201 17.0671 154.545 18.1152C153.898 19.1634 153 19.9518 151.852 20.4805C150.712 21.0091 149.4 21.2734 147.914 21.2734C146.428 21.2734 145.107 21.0091 143.949 20.4805C142.801 19.9518 141.898 19.1634 141.242 18.1152C140.595 17.0671 140.271 15.7773 140.271 14.2461V1.09375H144.373V14.2461C144.373 15.1393 144.514 15.8685 144.797 16.4336C145.079 16.9987 145.485 17.4134 146.014 17.6777C146.551 17.9421 147.185 18.0742 147.914 18.0742C148.661 18.0742 149.295 17.9421 149.814 17.6777C150.343 17.4134 150.744 16.9987 151.018 16.4336C151.3 15.8685 151.441 15.1393 151.441 14.2461V1.09375ZM165.018 21H160.684L160.711 17.8008H165.018C166.093 17.8008 167 17.5592 167.738 17.0762C168.477 16.584 169.033 15.8685 169.406 14.9297C169.789 13.9909 169.98 12.8561 169.98 11.5254V10.5547C169.98 9.53385 169.871 8.63607 169.652 7.86133C169.443 7.08659 169.128 6.4349 168.709 5.90625C168.29 5.3776 167.775 4.98112 167.164 4.7168C166.553 4.44336 165.852 4.30664 165.059 4.30664H160.602V1.09375H165.059C166.389 1.09375 167.606 1.32161 168.709 1.77734C169.821 2.22396 170.783 2.86654 171.594 3.70508C172.405 4.54362 173.029 5.54622 173.467 6.71289C173.913 7.87044 174.137 9.16016 174.137 10.582V11.5254C174.137 12.9382 173.913 14.2279 173.467 15.3945C173.029 16.5612 172.405 17.5638 171.594 18.4023C170.792 19.2318 169.83 19.8743 168.709 20.3301C167.597 20.7767 166.367 21 165.018 21ZM163.008 1.09375V21H158.906V1.09375H163.008ZM181.479 1.09375V21H177.391V1.09375H181.479ZM201.672 10.582V11.5254C201.672 13.0384 201.467 14.3965 201.057 15.5996C200.646 16.8027 200.068 17.8281 199.32 18.6758C198.573 19.5143 197.68 20.1569 196.641 20.6035C195.611 21.0501 194.467 21.2734 193.209 21.2734C191.96 21.2734 190.816 21.0501 189.777 20.6035C188.747 20.1569 187.854 19.5143 187.098 18.6758C186.341 17.8281 185.753 16.8027 185.334 15.5996C184.924 14.3965 184.719 13.0384 184.719 11.5254V10.582C184.719 9.0599 184.924 7.70182 185.334 6.50781C185.744 5.30469 186.323 4.2793 187.07 3.43164C187.827 2.58398 188.72 1.93685 189.75 1.49023C190.789 1.04362 191.933 0.820312 193.182 0.820312C194.439 0.820312 195.583 1.04362 196.613 1.49023C197.652 1.93685 198.546 2.58398 199.293 3.43164C200.049 4.2793 200.633 5.30469 201.043 6.50781C201.462 7.70182 201.672 9.0599 201.672 10.582ZM197.529 11.5254V10.5547C197.529 9.4974 197.434 8.56771 197.242 7.76562C197.051 6.96354 196.768 6.28906 196.395 5.74219C196.021 5.19531 195.565 4.78516 195.027 4.51172C194.49 4.22917 193.874 4.08789 193.182 4.08789C192.489 4.08789 191.874 4.22917 191.336 4.51172C190.807 4.78516 190.356 5.19531 189.982 5.74219C189.618 6.28906 189.34 6.96354 189.148 7.76562C188.957 8.56771 188.861 9.4974 188.861 10.5547V11.5254C188.861 12.5736 188.957 13.5033 189.148 14.3145C189.34 15.1165 189.622 15.7956 189.996 16.3516C190.37 16.8984 190.826 17.3132 191.363 17.5957C191.901 17.8783 192.516 18.0195 193.209 18.0195C193.902 18.0195 194.517 17.8783 195.055 17.5957C195.592 17.3132 196.044 16.8984 196.408 16.3516C196.773 15.7956 197.051 15.1165 197.242 14.3145C197.434 13.5033 197.529 12.5736 197.529 11.5254Z" fill="#323334"/>
</svg>
