<svg width="287" height="20" viewBox="0 0 287 20" fill="none" xmlns="http://www.w3.org/2000/svg">
<path d="M100.287 4.93536C99.6919 5.19154 99.0438 5.37591 98.3763 5.44771C99.0693 5.03713 99.5883 4.38847 99.8359 3.62343C99.1855 4.00923 98.4731 4.27975 97.7302 4.42301C97.4197 4.09198 97.0441 3.82826 96.6269 3.64829C96.2097 3.46832 95.7599 3.37596 95.3053 3.37696C93.4662 3.37696 91.9872 4.86356 91.9872 6.68784C91.9872 6.94401 92.0183 7.20019 92.0689 7.44666C89.3152 7.30305 86.8592 5.99112 85.2264 3.98247C84.9289 4.48922 84.773 5.06622 84.7749 5.65343C84.7749 6.80234 85.3607 7.8154 86.2539 8.4112C85.7275 8.39053 85.2134 8.24624 84.7535 7.99006V8.03082C84.7535 9.63968 85.8939 10.973 87.4138 11.2796C87.1284 11.3535 86.8349 11.3913 86.54 11.3922C86.324 11.3922 86.1197 11.3708 85.9134 11.3417C86.3337 12.6536 87.5578 13.6065 89.0155 13.6376C87.8751 14.5284 86.4466 15.0524 84.8955 15.0524C84.6173 15.0524 84.3604 15.0427 84.0938 15.0116C85.565 15.9529 87.3107 16.4963 89.1906 16.4963C95.2936 16.4963 98.6332 11.4543 98.6332 7.07792C98.6332 6.93431 98.6332 6.7907 98.6234 6.64708C99.2696 6.17549 99.8359 5.59133 100.287 4.93536Z" fill="white"/>
<path d="M184.448 7.34938C183.019 7.34938 181.853 8.51187 181.853 9.93636C181.853 11.3609 183.019 12.5233 184.448 12.5233C185.876 12.5233 187.042 11.3609 187.042 9.93636C187.042 8.51187 185.876 7.34938 184.448 7.34938ZM192.228 9.93636C192.228 8.86508 192.238 7.80351 192.178 6.73417C192.117 5.4921 191.833 4.38977 190.922 3.48151C190.01 2.57131 188.906 2.28991 187.661 2.22975C186.586 2.16958 185.522 2.17929 184.45 2.17929C183.375 2.17929 182.311 2.16958 181.239 2.22975C179.993 2.28991 178.888 2.57326 177.977 3.48151C177.064 4.39171 176.782 5.4921 176.722 6.73417C176.661 7.80545 176.671 8.86702 176.671 9.93636C176.671 11.0057 176.661 12.0692 176.722 13.1386C176.782 14.3806 177.066 15.483 177.977 16.3912C178.89 17.3014 179.993 17.5828 181.239 17.643C182.313 17.7031 183.377 17.6934 184.45 17.6934C185.524 17.6934 186.588 17.7031 187.661 17.643C188.906 17.5828 190.012 17.2995 190.922 16.3912C191.835 15.481 192.117 14.3806 192.178 13.1386C192.24 12.0692 192.228 11.0076 192.228 9.93636ZM184.448 13.9168C182.239 13.9168 180.456 12.1391 180.456 9.93636C180.456 7.73364 182.239 5.95594 184.448 5.95594C186.657 5.95594 188.439 7.73364 188.439 9.93636C188.439 12.1391 186.657 13.9168 184.448 13.9168ZM188.603 6.72252C188.087 6.72252 187.67 6.30721 187.67 5.79292C187.67 5.27862 188.087 4.86331 188.603 4.86331C189.118 4.86331 189.535 5.27862 189.535 5.79292C189.535 5.91504 189.511 6.03599 189.464 6.14884C189.417 6.2617 189.349 6.36424 189.262 6.45059C189.176 6.53694 189.073 6.60541 188.96 6.65207C188.846 6.69874 188.725 6.72268 188.603 6.72252Z" fill="white"/>
<g clip-path="url(#clip0_1_343)">
<path d="M274.959 0H273.838L273.091 2.85675L272.344 0H271.098C271.347 0.745238 271.596 1.36627 271.845 2.11151C272.219 3.10516 272.468 3.9746 272.468 4.47143V7.45238H273.589V4.47143L274.959 0ZM277.948 5.58929V3.72619C277.948 3.10516 277.824 2.73254 277.575 2.35992C277.326 1.9873 276.952 1.8631 276.454 1.8631C275.956 1.8631 275.582 2.11151 275.333 2.48413C275.084 2.73254 274.959 3.10516 274.959 3.72619V5.71349C274.959 6.33452 275.084 6.70714 275.333 6.95556C275.582 7.32818 275.956 7.45238 276.454 7.45238C276.952 7.45238 277.326 7.20397 277.575 6.83135C277.824 6.70714 277.948 6.21032 277.948 5.58929ZM276.952 5.8377C276.952 6.33452 276.828 6.58294 276.454 6.58294C276.08 6.58294 275.956 6.33452 275.956 5.8377V3.47778C275.956 2.98095 276.08 2.73254 276.454 2.73254C276.828 2.73254 276.952 2.98095 276.952 3.47778V5.8377ZM281.685 7.45238V1.8631H280.689V6.08611C280.439 6.45873 280.315 6.58294 280.066 6.58294C279.941 6.58294 279.817 6.45873 279.817 6.33452V1.8631H278.82V6.21032C278.82 6.58294 278.82 6.83135 278.945 7.07976C278.945 7.32818 279.194 7.45238 279.568 7.45238C279.941 7.45238 280.315 7.20397 280.689 6.83135V7.45238H281.685Z" fill="white"/>
<path d="M282.183 13.0415C281.81 13.0415 281.685 13.2899 281.685 13.7867V14.2836H282.681V13.7867C282.681 13.2899 282.556 13.0415 282.183 13.0415Z" fill="white"/>
<path d="M278.571 13.0415C278.447 13.0415 278.198 13.1657 278.073 13.2899V16.6435C278.198 16.7677 278.447 16.8919 278.571 16.8919C278.82 16.8919 278.944 16.6435 278.944 16.1467V13.7867C278.944 13.2899 278.82 13.0415 278.571 13.0415Z" fill="white"/>
<path d="M284.674 10.3091C284.425 9.4397 283.678 8.69446 282.93 8.69446C280.938 8.44604 278.82 8.44604 276.703 8.44604C274.585 8.44604 272.593 8.44604 270.475 8.69446C269.728 8.69446 268.981 9.4397 268.732 10.3091C268.482 11.5512 268.482 12.9175 268.482 14.1595C268.482 15.4016 268.482 16.7679 268.732 18.0099C268.981 18.8794 269.603 19.5004 270.475 19.6246C272.593 19.873 274.585 19.873 276.703 19.873C278.82 19.873 280.813 19.873 282.93 19.6246C283.802 19.5004 284.55 18.8794 284.674 18.0099C284.923 16.7679 284.923 15.4016 284.923 14.1595C284.923 12.9175 284.923 11.5512 284.674 10.3091ZM273.215 11.427H271.97V17.7615H270.849V11.427H269.728V10.3091H273.215V11.427ZM276.205 17.7615H275.208V17.1405C274.835 17.6373 274.461 17.7615 274.087 17.7615C273.714 17.7615 273.589 17.6373 273.464 17.3889C273.464 17.2647 273.34 17.0163 273.34 16.5195V12.1722H274.336V16.5195C274.336 16.6437 274.461 16.7679 274.585 16.7679C274.835 16.7679 274.959 16.6437 275.208 16.271V12.1722H276.205V17.7615ZM279.941 16.0226C279.941 16.5195 279.941 16.8921 279.817 17.1405C279.692 17.5131 279.443 17.7615 279.069 17.7615C278.696 17.7615 278.322 17.5131 278.073 17.1405V17.6373H277.076V10.3091H278.073V12.6691C278.447 12.2964 278.696 12.048 279.069 12.048C279.443 12.048 279.692 12.2964 279.817 12.6691C279.941 12.9175 279.941 13.2901 279.941 13.7869V16.0226ZM283.678 15.1532H281.685V16.1468C281.685 16.6437 281.809 16.8921 282.183 16.8921C282.432 16.8921 282.557 16.7679 282.681 16.5195V15.8984H283.678V16.6437C283.678 16.8921 283.553 17.0163 283.429 17.2647C283.179 17.6373 282.806 17.8857 282.183 17.8857C281.685 17.8857 281.311 17.6373 280.938 17.2647C280.688 17.0163 280.564 16.5195 280.564 16.0226V14.1595C280.564 13.5385 280.688 13.1659 280.813 12.9175C281.062 12.5449 281.436 12.2964 282.059 12.2964C282.557 12.2964 282.93 12.5449 283.179 12.9175C283.429 13.1659 283.429 13.6627 283.429 14.1595V15.1532H283.678Z" fill="white"/>
</g>
<path d="M2.4559 19.873V10.548H0V7.19057H2.4559V4.32288C2.4559 2.06942 3.9066 0 7.24934 0C8.60276 0 9.60356 0.130268 9.60356 0.130268L9.5247 3.26555C9.5247 3.26555 8.50405 3.25558 7.39027 3.25558C6.18483 3.25558 5.9917 3.81331 5.9917 4.73902V7.19057H9.62052L9.46263 10.548H5.9917V19.873H2.4559Z" fill="white"/>
<defs>
<clipPath id="clip0_1_343">
<rect width="19.9282" height="19.873" fill="white" transform="translate(266.739)"/>
</clipPath>
</defs>
</svg>
