<svg width="91" height="16" viewBox="0 0 91 16" fill="none" xmlns="http://www.w3.org/2000/svg">
<path d="M7.53333 0L5.02222 5.02222L0 5.65L3.45696 9.51711L2.51111 15.0667L7.53333 12.5556L12.5556 15.0667L11.6181 9.51711L15.0667 5.65L10.0444 5.02222L7.53333 0ZM7.53333 1.87496L9.492 5.80067L13.3842 6.28615L10.7224 9.266L11.4507 13.5767L7.53333 11.6181L3.616 13.5767L4.34422 9.266L1.68244 6.28615L5.57467 5.80067L7.53333 1.87496Z" fill="#F2C94C"/>
<path d="M26.3668 0L23.8557 5.02222L18.8335 5.65L22.2905 9.51711L21.3446 15.0667L26.3668 12.5556L31.3891 15.0667L30.4516 9.51711L33.9002 5.65L28.8779 5.02222L26.3668 0ZM26.3668 1.87496L28.3255 5.80067L32.2177 6.28615L29.5559 9.266L30.2842 13.5767L26.3668 11.6181L22.4495 13.5767L23.1777 9.266L20.5159 6.28615L24.4082 5.80067L26.3668 1.87496Z" fill="#F2C94C"/>
<path d="M45.1998 0L42.6887 5.02222L37.6665 5.65L41.1235 9.51711L40.1776 15.0667L45.1998 12.5556L50.2221 15.0667L49.2846 9.51711L52.7332 5.65L47.7109 5.02222L45.1998 0ZM45.1998 1.87496L47.1585 5.80067L51.0507 6.28615L48.3889 9.266L49.1172 13.5767L45.1998 11.6181L41.2825 13.5767L42.0107 9.266L39.3489 6.28615L43.2412 5.80067L45.1998 1.87496Z" fill="#F2C94C"/>
<path d="M64.0333 0L61.5222 5.02222L56.5 5.65L59.957 9.51711L59.0111 15.0667L64.0333 12.5556L69.0556 15.0667L68.1181 9.51711L71.5667 5.65L66.5444 5.02222L64.0333 0ZM64.0333 1.87496L65.992 5.80067L69.8842 6.28615L67.2224 9.266L67.9507 13.5767L64.0333 11.6181L60.116 13.5767L60.8442 9.266L58.1824 6.28615L62.0747 5.80067L64.0333 1.87496Z" fill="#F2C94C"/>
<mask id="path-5-inside-1_1_74" fill="white">
<path d="M82.8668 0L80.3557 5.02222L75.3335 5.65L78.7905 9.51711L77.8446 15.0667L82.8668 12.5556L87.8891 15.0667L86.9516 9.51711L90.4002 5.65L85.3779 5.02222L82.8668 0ZM82.8668 1.87496L84.8255 5.80067L88.7177 6.28615L86.0559 9.266L86.7842 13.5767L82.8668 11.6181L78.9495 13.5767L79.6777 9.266L77.0159 6.28615L80.9082 5.80067L82.8668 1.87496Z"/>
</mask>
<path d="M82.8668 0L83.9401 -0.536656L82.8668 -2.68328L81.7935 -0.536656L82.8668 0ZM80.3557 5.02222L80.5046 6.21296L81.1418 6.1333L81.429 5.55888L80.3557 5.02222ZM75.3335 5.65L75.1847 4.45927L72.9133 4.74319L74.4389 6.44976L75.3335 5.65ZM78.7905 9.51711L79.9734 9.71873L80.0706 9.14856L79.6851 8.71735L78.7905 9.51711ZM77.8446 15.0667L76.6617 14.865L76.2639 17.1986L78.3813 16.14L77.8446 15.0667ZM82.8668 12.5556L83.4035 11.4822L82.8668 11.2139L82.3302 11.4822L82.8668 12.5556ZM87.8891 15.0667L87.3524 16.14L89.4659 17.1967L89.0723 14.8668L87.8891 15.0667ZM86.9516 9.51711L86.056 8.71843L85.6723 9.14863L85.7683 9.71699L86.9516 9.51711ZM90.4002 5.65L91.2958 6.44868L92.8171 4.74277L90.549 4.45927L90.4002 5.65ZM85.3779 5.02222L84.3046 5.55888L84.5918 6.1333L85.2291 6.21296L85.3779 5.02222ZM82.8668 1.87496L83.9406 1.33922L82.8668 -0.812906L81.7931 1.33922L82.8668 1.87496ZM84.8255 5.80067L83.7517 6.33641L84.0388 6.91184L84.677 6.99144L84.8255 5.80067ZM88.7177 6.28615L89.6127 7.08557L91.1374 5.37866L88.8662 5.09538L88.7177 6.28615ZM86.0559 9.266L85.161 8.46658L84.7766 8.89692L84.8727 9.46589L86.0559 9.266ZM86.7842 13.5767L86.2475 14.6501L88.361 15.7068L87.9674 13.3769L86.7842 13.5767ZM82.8668 11.6181L83.4035 10.5448L82.8668 10.2764L82.3302 10.5448L82.8668 11.6181ZM78.9495 13.5767L77.7663 13.3769L77.3727 15.7068L79.4862 14.6501L78.9495 13.5767ZM79.6777 9.266L80.861 9.46589L80.9571 8.89692L80.5727 8.46658L79.6777 9.266ZM77.0159 6.28615L76.8674 5.09538L74.5963 5.37866L76.121 7.08557L77.0159 6.28615ZM80.9082 5.80067L81.0567 6.99144L81.6948 6.91184L81.9819 6.33641L80.9082 5.80067ZM81.7935 -0.536656L79.2824 4.48557L81.429 5.55888L83.9401 0.536656L81.7935 -0.536656ZM80.2069 3.83149L75.1847 4.45927L75.4823 6.84073L80.5046 6.21296L80.2069 3.83149ZM74.4389 6.44976L77.8958 10.3169L79.6851 8.71735L76.2281 4.85024L74.4389 6.44976ZM77.6075 9.31549L76.6617 14.865L79.0275 15.2683L79.9734 9.71873L77.6075 9.31549ZM78.3813 16.14L83.4035 13.6289L82.3302 11.4822L77.308 13.9934L78.3813 16.14ZM82.3302 13.6289L87.3524 16.14L88.4257 13.9934L83.4035 11.4822L82.3302 13.6289ZM89.0723 14.8668L88.1348 9.31723L85.7683 9.71699L86.7058 15.2665L89.0723 14.8668ZM87.8472 10.3158L91.2958 6.44868L89.5046 4.85132L86.056 8.71843L87.8472 10.3158ZM90.549 4.45927L85.5268 3.83149L85.2291 6.21296L90.2513 6.84073L90.549 4.45927ZM86.4513 4.48557L83.9401 -0.536656L81.7935 0.536656L84.3046 5.55888L86.4513 4.48557ZM81.7931 2.4107L83.7517 6.33641L85.8993 5.26493L83.9406 1.33922L81.7931 2.4107ZM84.677 6.99144L88.5692 7.47692L88.8662 5.09538L84.974 4.60989L84.677 6.99144ZM87.8228 5.48673L85.161 8.46658L86.9509 10.0654L89.6127 7.08557L87.8228 5.48673ZM84.8727 9.46589L85.6009 13.7766L87.9674 13.3769L87.2392 9.06611L84.8727 9.46589ZM87.3208 12.5034L83.4035 10.5448L82.3302 12.6914L86.2475 14.6501L87.3208 12.5034ZM82.3302 10.5448L78.4128 12.5034L79.4862 14.6501L83.4035 12.6914L82.3302 10.5448ZM80.1327 13.7766L80.861 9.46589L78.4945 9.06611L77.7663 13.3769L80.1327 13.7766ZM80.5727 8.46658L77.9109 5.48673L76.121 7.08557L78.7828 10.0654L80.5727 8.46658ZM77.1645 7.47692L81.0567 6.99144L80.7596 4.60989L76.8674 5.09538L77.1645 7.47692ZM81.9819 6.33641L83.9406 2.4107L81.7931 1.33922L79.8344 5.26493L81.9819 6.33641Z" fill="black" fill-opacity="0.5" mask="url(#path-5-inside-1_1_74)"/>
</svg>
